<?xml version="1.0" encoding="utf-8"?>
<!-- Generator: Adobe Illustrator 18.0.0, SVG Export Plug-In . SVG Version: 6.00 Build 0)  -->
<!DOCTYPE svg PUBLIC "-//W3C//DTD SVG 1.1//EN" "http://www.w3.org/Graphics/SVG/1.1/DTD/svg11.dtd">
<svg version="1.1" id="Layer_1" xmlns="http://www.w3.org/2000/svg" xmlns:xlink="http://www.w3.org/1999/xlink" x="0px" y="0px"
	 viewBox="0 0 50 50" enable-background="new 0 0 50 50" xml:space="preserve">
<g>
	<path fill="#FFFFFF" d="M5.2,47.5c-0.7,0-1.5-0.3-2-0.8c-1.1-1.1-1.1-2.9,0-4L41.4,4.4c1.1-1.1,2.9-1.1,4,0c1.1,1.1,1.1,2.9,0,4
		L7.2,46.7C6.7,47.2,5.9,47.5,5.2,47.5z"/>
</g>
<g>
	<path fill="#FFFFFF" d="M43.4,47.5c-0.7,0-1.5-0.3-2-0.8L3.2,8.4c-1.1-1.1-1.1-2.9,0-4c1.1-1.1,2.9-1.1,4,0l38.2,38.2
		c1.1,1.1,1.1,2.9,0,4C44.9,47.2,44.1,47.5,43.4,47.5z"/>
</g>
</svg>
